<?xml version="1.0" encoding="UTF-8"?>
<!DOCTYPE svg PUBLIC "-//W3C//DTD SVG 1.1//EN" "http://www.w3.org/Graphics/SVG/1.1/DTD/svg11.dtd">
<svg xmlns="http://www.w3.org/2000/svg" version="1.1" width="32px" height="32px" style="shape-rendering:geometricPrecision; text-rendering:geometricPrecision; image-rendering:optimizeQuality; fill-rule:evenodd; clip-rule:evenodd" xmlns:xlink="http://www.w3.org/1999/xlink">
<g><path style="opacity:1" fill="#f0f0f0" d="M 27.5,18.5 C 26.5,18.8333 25.8333,19.5 25.5,20.5C 21.8307,21.7506 18.164,21.7506 14.5,20.5C 12.0163,22.483 9.68292,24.6496 7.5,27C 6.07153,27.5791 4.7382,27.4124 3.5,26.5C 3.79673,22.6743 5.63006,19.6743 9,17.5C 7.29611,5.20329 12.4628,0.0366189 24.5,2C 30.6063,6.86404 31.6063,12.364 27.5,18.5 Z M 16.5,7.5 C 18.5,7.5 20.5,7.5 22.5,7.5C 22.8333,8.5 23.5,9.16667 24.5,9.5C 24.2937,16.6275 21.127,18.2942 15,14.5C 14.5065,12.8659 14.3398,11.1992 14.5,9.5C 15.5,9.16667 16.1667,8.5 16.5,7.5 Z"/></g>
<g><path style="opacity:1" fill="#1c1c1c" d="M 22.5,7.5 C 20.5,7.5 18.5,7.5 16.5,7.5C 18.5,4.83333 20.5,4.83333 22.5,7.5 Z"/></g>
<g><path style="opacity:1" fill="#1f1f1f" d="M 16.5,7.5 C 16.1667,8.5 15.5,9.16667 14.5,9.5C 14.5,8.16667 15.1667,7.5 16.5,7.5 Z"/></g>
<g><path style="opacity:1" fill="#383838" d="M 22.5,7.5 C 23.8333,7.5 24.5,8.16667 24.5,9.5C 23.5,9.16667 22.8333,8.5 22.5,7.5 Z"/></g>
<g><path style="opacity:1" fill="#010101" d="M 27.5,18.5 C 27.5,19.8333 26.8333,20.5 25.5,20.5C 25.8333,19.5 26.5,18.8333 27.5,18.5 Z"/></g>
<g><path style="opacity:1" fill="#121212" d="M 25.5,20.5 C 25.3893,21.1174 25.056,21.6174 24.5,22C 17.9155,21.0518 12.5821,23.0518 8.5,28C 7.66667,28.1667 6.83333,28.3333 6,28.5C 4.62439,28.3158 3.79106,27.6491 3.5,26.5C 4.7382,27.4124 6.07153,27.5791 7.5,27C 9.68292,24.6496 12.0163,22.483 14.5,20.5C 18.164,21.7506 21.8307,21.7506 25.5,20.5 Z"/></g>
</svg>
